<?xml version="1.0" encoding="UTF-8" standalone="no"?>
<svg
   xmlns:dc="http://purl.org/dc/elements/1.1/"
   xmlns:cc="http://creativecommons.org/ns#"
   xmlns:rdf="http://www.w3.org/1999/02/22-rdf-syntax-ns#"
   xmlns:svg="http://www.w3.org/2000/svg"
   xmlns="http://www.w3.org/2000/svg"
   xmlns:sodipodi="http://sodipodi.sourceforge.net/DTD/sodipodi-0.dtd"
   xmlns:inkscape="http://www.inkscape.org/namespaces/inkscape"
   version="1.1"
   id="Capa_1"
   x="0px"
   y="0px"
   viewBox="0 0 50 50"
   xml:space="preserve"
   inkscape:version="0.91 r13725"
   sodipodi:docname="accept.svg"
   style="enable-background:new 0 0 50 50;"><metadata
     id="metadata11"><rdf:RDF><cc:Work
         rdf:about=""><dc:format>image/svg+xml</dc:format><dc:type
           rdf:resource="http://purl.org/dc/dcmitype/StillImage" /><dc:title></dc:title></cc:Work></rdf:RDF></metadata><defs
     id="defs9" /><sodipodi:namedview
     pagecolor="#ffffff"
     bordercolor="#666666"
     borderopacity="1"
     objecttolerance="10"
     gridtolerance="10"
     guidetolerance="10"
     inkscape:pageopacity="0"
     inkscape:pageshadow="2"
     inkscape:window-width="1376"
     inkscape:window-height="759"
     id="namedview7"
     showgrid="false"
     inkscape:zoom="4.72"
     inkscape:cx="23.516949"
     inkscape:cy="25"
     inkscape:window-x="2339"
     inkscape:window-y="551"
     inkscape:window-maximized="0"
     inkscape:current-layer="Capa_1" /><circle
     style="fill:#25AE88;"
     cx="25"
     cy="25"
     r="24.75"
     id="circle3" /><polyline
     style="fill:none;stroke:#FFFFFF;stroke-width:2;stroke-linecap:round;stroke-linejoin:round;stroke-miterlimit:10;"
     points="38,15 22,33 12,25 "
     id="polyline5" /><path
     style="fill:#008000"
     d="M 21.581547,49.428684 C 10.206561,47.766375 1.5493589,38.646739 0.48323617,27.20339 -0.18188194,20.064269 2.3700676,12.901593 7.4083958,7.7662214 16.834675,-1.8416184 32.127004,-2.1313169 41.902367,7.1127663 c 6.811146,6.4409677 9.355394,16.0683947 6.654074,25.1789777 -0.55396,1.868307 -2.109335,5.013915 -3.40821,6.892805 -1.246134,1.802593 -4.407057,4.932362 -6.228739,6.167347 -4.955562,3.359553 -11.582719,4.917841 -17.337945,4.076788 z m 9.278942,-24.741837 c 5.715916,-6.43371 8.164935,-9.336461 8.164935,-9.677663 0,-0.550879 -0.51017,-1.153252 -0.976727,-1.153252 -0.479879,0 -1.433477,1.012775 -8.777339,9.322034 -3.75903,4.253178 -6.957532,7.866809 -7.107784,8.03029 -0.229972,0.250221 -1.017207,-0.298576 -4.976606,-3.469279 -4.846253,-3.880901 -5.447679,-4.216625 -6.058157,-3.381746 -0.350676,0.479578 -0.35456,0.762714 -0.01652,1.204515 0.145657,0.190366 2.54686,2.167756 5.336007,4.394199 4.2053,3.35689 5.171581,4.037241 5.659219,3.984625 0.477972,-0.05157 2.116341,-1.783672 8.752976,-9.253723 z"
     id="path3339"
     inkscape:connector-curvature="0" /></svg>