<?xml version="1.0" encoding="UTF-8" standalone="no"?>
<svg
   xmlns:dc="http://purl.org/dc/elements/1.1/"
   xmlns:cc="http://creativecommons.org/ns#"
   xmlns:rdf="http://www.w3.org/1999/02/22-rdf-syntax-ns#"
   xmlns:svg="http://www.w3.org/2000/svg"
   xmlns="http://www.w3.org/2000/svg"
   xmlns:sodipodi="http://sodipodi.sourceforge.net/DTD/sodipodi-0.dtd"
   xmlns:inkscape="http://www.inkscape.org/namespaces/inkscape"
   version="1.1"
   id="Capa_1"
   x="0px"
   y="0px"
   viewBox="0 0 50 50"
   style="enable-background:new 0 0 50 50;"
   xml:space="preserve"
   inkscape:version="0.91 r13725"
   sodipodi:docname="exclamation_mark.svg"><metadata
     id="metadata13"><rdf:RDF><cc:Work
         rdf:about=""><dc:format>image/svg+xml</dc:format><dc:type
           rdf:resource="http://purl.org/dc/dcmitype/StillImage" /><dc:title></dc:title></cc:Work></rdf:RDF></metadata><defs
     id="defs11" /><sodipodi:namedview
     pagecolor="#ffffff"
     bordercolor="#666666"
     borderopacity="1"
     objecttolerance="10"
     gridtolerance="10"
     guidetolerance="10"
     inkscape:pageopacity="0"
     inkscape:pageshadow="2"
     inkscape:window-width="1467"
     inkscape:window-height="1023"
     id="namedview9"
     showgrid="false"
     inkscape:zoom="4.72"
     inkscape:cx="25.423729"
     inkscape:cy="25"
     inkscape:window-x="3397"
     inkscape:window-y="382"
     inkscape:window-maximized="0"
     inkscape:current-layer="Capa_1"
     showborder="false" /><circle
     style="fill:#EFCE4A;"
     cx="25"
     cy="25"
     r="24.75"
     id="circle3" /><line
     style="fill:none;stroke:#FFFFFF;stroke-width:2;stroke-linecap:round;stroke-miterlimit:10;"
     x1="25"
     y1="10"
     x2="25"
     y2="32"
     id="line5" /><line
     style="fill:none;stroke:#FFFFFF;stroke-width:2;stroke-linecap:round;stroke-miterlimit:10;"
     x1="25"
     y1="37"
     x2="25"
     y2="39"
     id="line7" /><path
     style="fill:#ff6600"
     d="M 20.699153,49.291434 C 12.253283,47.717087 5.149621,41.919354 2.0689369,34.086174 -1.5208067,24.958621 0.61584345,14.619409 7.5360867,7.6307318 13.617403,1.4892777 22.714206,-1.0380449 31.057642,1.0958468 39.155049,3.1668146 45.681934,9.2117947 48.35318,17.114388 c 1.440203,4.260686 1.65528,9.67725 0.552822,13.922468 -2.292345,8.827102 -9.024555,15.56065 -17.869146,17.872703 -2.652146,0.693295 -7.672203,0.878735 -10.337703,0.381875 z m 5.015097,-9.557322 c 0.576489,-0.521714 0.551835,-2.874807 -0.03628,-3.462926 -0.510066,-0.510065 -0.61808,-0.518353 -1.224044,-0.09392 -0.414388,0.29025 -0.470871,0.51771 -0.470871,1.896252 0,1.268341 0.07056,1.607538 0.370763,1.782392 0.534868,0.311534 0.91968,0.277081 1.360436,-0.121799 z m 0,-6.991525 c 0.366157,-0.331367 0.387445,-0.973634 0.387445,-11.688826 0,-10.252994 -0.03356,-11.375276 -0.350634,-11.7256379 C 25.350517,8.8855252 24.611693,8.8205108 24.237288,9.1949153 24.045739,9.386464 23.983051,12.309337 23.983051,21.048794 c 0,10.82377 0.0248,11.614087 0.370763,11.815592 0.534868,0.311533 0.91968,0.27708 1.360436,-0.121799 z"
     id="path4143"
     inkscape:connector-curvature="0" /></svg>